<svg width="70" height="87" viewBox="0 0 70 87" fill="none" xmlns="http://www.w3.org/2000/svg">
<path fill-rule="evenodd" clip-rule="evenodd" d="M35 28.6666C22.1133 28.6666 11.6666 39.1133 11.6666 51.9999C11.6666 64.8866 22.1133 75.3333 35 75.3333C47.8866 75.3333 58.3333 64.8866 58.3333 51.9999C58.3333 39.1133 47.8866 28.6666 35 28.6666ZM5.83331 51.9999C5.83331 35.8916 18.8917 22.8333 35 22.8333C51.1083 22.8333 64.1666 35.8916 64.1666 51.9999C64.1666 68.1082 51.1083 81.1666 35 81.1666C18.8917 81.1666 5.83331 68.1082 5.83331 51.9999ZM32.9376 45.3123C31.7986 44.1733 31.7986 42.3266 32.9376 41.1875C34.0766 40.0485 35.9233 40.0485 37.0624 41.1875L45.8124 49.9375C46.9514 51.0766 46.9514 52.9233 45.8124 54.0623L37.0624 62.8123C35.9233 63.9513 34.0766 63.9513 32.9376 62.8123C31.7986 61.6733 31.7986 59.8266 32.9376 58.6875L36.7085 54.9166H26.25C24.6391 54.9166 23.3333 53.6108 23.3333 51.9999C23.3333 50.3891 24.6391 49.0833 26.25 49.0833H36.7085L32.9376 45.3123Z" fill="black"/>
</svg>
