<svg width="52" height="50" viewBox="0 0 52 50" fill="none" xmlns="http://www.w3.org/2000/svg">
<circle cx="31" cy="23" r="19.5" fill="white" stroke="#0066AE"/>
<path d="M43.4162 32.9971L37.1975 26.7778C38.167 25.1865 38.6783 23.3584 38.6752 21.495C38.6752 15.8714 33.8026 11 28.1796 11C26.8428 10.9998 25.519 11.263 24.2838 11.7745C23.0487 12.2861 21.9264 13.036 20.9811 13.9814C20.0358 14.9268 19.2859 16.0491 18.7744 17.2844C18.2629 18.5197 17.9998 19.8436 18 21.1806C18 26.8025 22.8726 31.6756 28.494 31.6756C30.2958 31.6772 32.0654 31.1977 33.62 30.2866L39.8716 36.5421C40.1656 36.8353 40.5639 37 40.9791 37C41.3943 37 41.7926 36.8353 42.0866 36.5421L43.6384 34.9901C44.2489 34.3795 44.0267 33.6077 43.4162 32.9971ZM21.1332 21.1806C21.133 20.255 21.3151 19.3385 21.6691 18.4833C22.0231 17.6281 22.5421 16.8511 23.1965 16.1965C23.8508 15.5419 24.6277 15.0227 25.4827 14.6685C26.3377 14.3142 27.2542 14.1319 28.1796 14.1319C32.0731 14.1319 35.542 17.5995 35.542 21.495C35.5416 23.3643 34.7989 25.1569 33.4772 26.4787C32.1555 27.8005 30.3631 28.5433 28.494 28.5437C24.6005 28.5421 21.1332 25.0728 21.1332 21.1806Z" fill="#0066AE"/>
</svg>
