<svg width="220" height="141" viewBox="0 0 220 141" fill="none" xmlns="http://www.w3.org/2000/svg">
<path d="M13.75 20.7834C25.9188 16.8114 43.3675 12.528 60.335 11.1968C78.6225 9.7583 94.1325 11.8731 103.125 19.2697V123.896C90.2688 118.206 73.975 117.422 58.9463 118.603C42.7213 119.891 26.3587 123.552 13.75 127.309V20.7834ZM116.875 19.2697C125.868 11.8731 141.378 9.7583 159.665 11.1968C176.633 12.528 194.081 16.8114 206.25 20.7834V127.309C193.628 123.552 177.279 119.881 161.054 118.614C146.011 117.422 129.731 118.195 116.875 123.896V19.2697ZM110 9.56507C96.4563 0.472297 76.8213 -0.880346 58.9463 0.515239C38.1287 2.15773 17.1187 7.72934 4.02875 12.3777C2.82767 12.8042 1.80916 13.4915 1.09479 14.3576C0.380417 15.2238 0.000365357 16.2321 0 17.2623L0 135.35C0.000318477 136.248 0.289261 137.132 0.84036 137.92C1.39146 138.709 2.1871 139.376 3.1544 139.862C4.1217 140.348 5.22974 140.637 6.37702 140.702C7.5243 140.767 8.67415 140.607 9.72125 140.235C21.8488 135.941 41.3875 130.777 60.3213 129.285C79.695 127.76 95.9338 130.219 104.638 138.7C105.282 139.326 106.098 139.832 107.026 140.18C107.954 140.528 108.971 140.708 110 140.708C111.029 140.708 112.046 140.528 112.974 140.18C113.902 139.832 114.718 139.326 115.363 138.7C124.066 130.219 140.305 127.76 159.665 129.285C178.613 130.777 198.165 135.941 210.279 140.235C211.326 140.607 212.476 140.767 213.623 140.702C214.77 140.637 215.878 140.348 216.846 139.862C217.813 139.376 218.609 138.709 219.16 137.92C219.711 137.132 220 136.248 220 135.35V17.2623C220 16.2321 219.62 15.2238 218.905 14.3576C218.191 13.4915 217.172 12.8042 215.971 12.3777C202.881 7.72934 181.871 2.15773 161.054 0.515239C143.179 -0.891081 123.544 0.472297 110 9.56507Z" fill="white"/>
</svg>
