<svg width="180" height="153" viewBox="0 0 180 153" fill="none" xmlns="http://www.w3.org/2000/svg">
<path fill-rule="evenodd" clip-rule="evenodd" d="M72.787 0.0415039H107.213C122.601 0.0415039 134.791 0.041505 144.327 1.37797C154.139 2.75812 162.084 5.65816 168.354 12.192C174.617 18.7346 177.396 27.0242 178.719 37.2617C180 47.2197 180 59.9292 180 75.9843V76.9626C180 93.0177 180 105.736 178.719 115.685C177.396 125.923 174.617 134.212 168.354 140.755C162.084 147.289 154.139 150.189 144.327 151.569C134.782 152.905 122.601 152.905 107.213 152.905H72.787C57.3991 152.905 45.2093 152.905 35.6735 151.569C25.8614 150.189 17.9163 147.289 11.6456 140.755C5.38326 134.212 2.60372 125.923 1.28093 115.685C0 105.727 0 93.0177 0 76.9626V75.9843C0 59.9292 0 47.211 1.28093 37.2617C2.60372 27.0242 5.38326 18.7346 11.6456 12.192C17.9163 5.65816 25.8614 2.75812 35.6735 1.37797C45.2177 0.041505 57.3991 0.0415039 72.787 0.0415039ZM37.3395 14.367C28.9172 15.5463 24.0614 17.765 20.5116 21.4599C16.9786 25.1549 14.8521 30.2212 13.7219 39.0087C12.5665 47.9884 12.5498 59.8157 12.5498 76.4735C12.5498 93.1313 12.5665 104.967 13.7219 113.947C14.8521 122.726 16.9786 127.792 20.52 131.487C24.0614 135.182 28.9172 137.401 37.3395 138.58C45.946 139.785 57.2819 139.803 73.2474 139.803H106.736C122.701 139.803 134.046 139.785 142.652 138.58C151.066 137.401 155.922 135.182 159.463 131.487C163.005 127.792 165.131 122.726 166.261 113.938C167.417 104.959 167.434 93.1313 167.434 76.4735C167.434 59.8157 167.417 47.9884 166.261 39C165.131 30.2212 163.005 25.1549 159.463 21.4599C155.922 17.765 151.066 15.5463 142.644 14.367C134.046 13.1616 122.701 13.1441 106.736 13.1441H73.2474C57.2819 13.1441 45.9544 13.1616 37.3395 14.367ZM34.9284 37.3403C35.9944 36.0063 37.5246 35.1686 39.1824 35.0114C40.8403 34.8541 42.4902 35.3902 43.7693 36.5017L61.8698 52.2161C69.6809 59.0033 75.0977 63.7028 79.6856 66.7775C84.1144 69.7475 87.12 70.752 90.0084 70.752C92.8968 70.752 95.9023 69.7562 100.331 66.7775C104.911 63.7028 110.336 59.0033 118.147 52.2161L136.222 36.493C136.856 35.9424 137.588 35.5274 138.375 35.2718C139.163 35.0162 139.991 34.9249 140.812 35.0032C141.634 35.0814 142.432 35.3277 143.162 35.728C143.892 36.1283 144.54 36.6746 145.067 37.3359C145.595 37.9972 145.993 38.7605 146.238 39.5822C146.483 40.4039 146.57 41.2679 146.495 42.1248C146.42 42.9818 146.184 43.8149 145.801 44.5767C145.417 45.3385 144.893 46.0139 144.26 46.5646L125.874 62.5498C118.448 69.0137 112.437 74.2373 107.121 77.8012C101.595 81.5136 96.2121 83.8546 90.0084 83.8546C83.8047 83.8546 78.4214 81.5049 72.8874 77.8012C67.5795 74.2373 61.5684 69.005 54.1423 62.5585L35.7488 46.5733C35.1146 46.0224 34.5906 45.3465 34.2068 44.5842C33.8231 43.8219 33.5872 42.9881 33.5125 42.1306C33.4379 41.2731 33.526 40.4087 33.7718 39.5867C34.0176 38.7647 34.4163 38.0014 34.9451 37.3403" fill="white"/>
</svg>
