<svg width="220" height="132" viewBox="0 0 220 132" fill="none" xmlns="http://www.w3.org/2000/svg">
<path d="M13.75 19.3691C25.9188 15.66 43.3675 11.6601 60.335 10.417C78.6225 9.07371 94.1325 11.0486 103.125 17.9557V115.657C90.2688 110.344 73.975 109.612 58.9463 110.715C42.7213 111.918 26.3587 115.336 13.75 118.845V19.3691ZM116.875 17.9557C125.868 11.0486 141.378 9.07371 159.665 10.417C176.633 11.6601 194.081 15.66 206.25 19.3691V118.845C193.628 115.336 177.279 111.908 161.054 110.725C146.011 109.612 129.731 110.334 116.875 115.657V17.9557ZM110 8.89326C96.4563 0.402282 76.8213 -0.860838 58.9463 0.442382C38.1287 1.97617 17.1187 7.17903 4.02875 11.5198C2.82767 11.918 1.80916 12.5598 1.09479 13.3686C0.380417 14.1774 0.000365357 15.119 0 16.081L0 126.353C0.000318477 127.192 0.289261 128.017 0.84036 128.753C1.39146 129.49 2.1871 130.113 3.1544 130.567C4.1217 131.021 5.22974 131.291 6.37702 131.351C7.5243 131.412 8.67416 131.262 9.72125 130.915C21.8488 126.905 41.3875 122.083 60.3213 120.689C79.695 119.266 95.9338 121.562 104.638 129.481C105.282 130.067 106.098 130.539 107.026 130.864C107.954 131.188 108.971 131.357 110 131.357C111.029 131.357 112.046 131.188 112.974 130.864C113.902 130.539 114.718 130.067 115.363 129.481C124.066 121.562 140.305 119.266 159.665 120.689C178.613 122.083 198.165 126.905 210.279 130.915C211.326 131.262 212.476 131.412 213.623 131.351C214.77 131.291 215.878 131.021 216.846 130.567C217.813 130.113 218.609 129.49 219.16 128.753C219.711 128.017 220 127.192 220 126.353V16.081C220 15.119 219.62 14.1774 218.905 13.3686C218.191 12.5598 217.172 11.918 215.971 11.5198C202.881 7.17903 181.871 1.97617 161.054 0.442382C143.179 -0.870863 123.544 0.402282 110 8.89326Z" fill="white"/>
</svg>
