<svg width="180" height="143" viewBox="0 0 180 143" fill="none" xmlns="http://www.w3.org/2000/svg">
<path fill-rule="evenodd" clip-rule="evenodd" d="M72.787 0H107.213C122.601 0 134.791 1.00188e-06 144.327 1.24802C154.139 2.53682 162.084 5.24493 168.354 11.3463C174.617 17.4559 177.396 25.1969 178.719 34.7568C180 44.0558 180 55.9242 180 70.9167V71.8302C180 86.8227 180 98.6993 178.719 107.99C177.396 117.55 174.617 125.291 168.354 131.401C162.084 137.502 154.139 140.21 144.327 141.499C134.782 142.747 122.601 142.747 107.213 142.747H72.787C57.3991 142.747 45.2093 142.747 35.6735 141.499C25.8614 140.21 17.9163 137.502 11.6456 131.401C5.38326 125.291 2.60372 117.55 1.28093 107.99C0 98.6911 0 86.8227 0 71.8302V70.9167C0 55.9242 0 44.0476 1.28093 34.7568C2.60372 25.1969 5.38326 17.4559 11.6456 11.3463C17.9163 5.24493 25.8614 2.53682 35.6735 1.24802C45.2177 1.00188e-06 57.3991 0 72.787 0ZM37.3395 13.3774C28.9172 14.4786 24.0614 16.5505 20.5116 20.0009C16.9786 23.4513 14.8521 28.1823 13.7219 36.3882C12.5665 44.7736 12.5498 55.8181 12.5498 71.3734C12.5498 86.9288 12.5665 97.9815 13.7219 106.367C14.8521 114.565 16.9786 119.296 20.52 122.746C24.0614 126.196 28.9172 128.268 37.3395 129.369C45.9461 130.495 57.2819 130.511 73.2474 130.511H106.736C122.701 130.511 134.046 130.495 142.652 129.369C151.066 128.268 155.922 126.196 159.463 122.746C163.005 119.296 165.131 114.565 166.261 106.359C167.417 97.9733 167.434 86.9288 167.434 71.3734C167.434 55.8181 167.417 44.7736 166.261 36.3801C165.131 28.1823 163.005 23.4513 159.463 20.0009C155.922 16.5505 151.066 14.4786 142.644 13.3774C134.046 12.2518 122.701 12.2354 106.736 12.2354H73.2474C57.2819 12.2354 45.9544 12.2518 37.3395 13.3774ZM34.9284 34.8302C35.9944 33.5846 37.5246 32.8023 39.1824 32.6555C40.8403 32.5086 42.4901 33.0092 43.7693 34.0472L61.8698 48.7215C69.6809 55.0595 75.0977 59.448 79.6856 62.3192C84.1144 65.0926 87.12 66.0306 90.0084 66.0306C92.8968 66.0306 95.9023 65.1007 100.331 62.3192C104.911 59.448 110.336 55.0595 118.147 48.7215L136.222 34.039C136.856 33.5248 137.588 33.1373 138.375 32.8986C139.163 32.6599 139.991 32.5747 140.812 32.6478C141.634 32.7209 142.432 32.9509 143.162 33.3246C143.892 33.6984 144.54 34.2086 145.067 34.8262C145.595 35.4437 145.993 36.1565 146.238 36.9238C146.483 37.6911 146.57 38.4979 146.495 39.2981C146.42 40.0983 146.184 40.8764 145.801 41.5877C145.417 42.2991 144.893 42.9298 144.26 43.444L125.874 58.3712C118.448 64.4074 112.437 69.2853 107.121 72.6133C101.595 76.08 96.2121 78.2661 90.0084 78.2661C83.8047 78.2661 78.4214 76.0719 72.8874 72.6133C67.5795 69.2853 61.5684 64.3992 54.1423 58.3794L35.7488 43.4521C35.1146 42.9378 34.5906 42.3066 34.2068 41.5947C33.8231 40.8829 33.5872 40.1043 33.5125 39.3035C33.4379 38.5028 33.526 37.6955 33.7718 36.9279C34.0176 36.1604 34.4163 35.4476 34.9451 34.8302" fill="white"/>
</svg>
